<svg id="Capa_1" data-name="Capa 1" xmlns="http://www.w3.org/2000/svg" viewBox="0 0 158.83 137.74"><defs><style>.cls-1{fill:#a5d0f0;}</style></defs><path class="cls-1" d="M47.79,28.44c0-5.91-.33-11.34.1-16.71S53.3,1.6,58.93.47A18.89,18.89,0,0,1,62.74,0C74.91.1,87.11-.25,99.25.49c14.8.9,27.52,7.48,38,17.64a70.72,70.72,0,0,1-.31,102c-10,9.64-22.1,15.65-35.88,16.78-13.06,1.06-26.24.9-39.36.77-8-.09-13.19-5.3-13.84-13.21-.39-4.73-.08-9.52-.08-14.91,2.09,0,3.8,0,5.52,0,13-.08,26-.36,38.93-.2,21.56.25,36.38-17.73,38-36.11,1.51-17.1-5.08-30.31-19.25-39.73a31.64,31.64,0,0,0-17.78-5c-13.3,0-26.6,0-39.9,0Z"/><path class="cls-1" d="M0,40.43c.16-9.85,7.68-16.75,17.74-16.78,7.38,0,16,6.2,16.05,18.57.06,8.78-8.08,16.16-17.57,16C6.91,58.1-.16,50.33,0,40.43Z"/><path class="cls-1" d="M17.49,79.41c8-.36,16.37,6.6,16.28,18.75-.06,8.81-8.21,16-17.76,15.78-9.17-.19-16.28-8.18-16-18A16.78,16.78,0,0,1,17.49,79.41Z"/></svg>